<svg width="78" height="31" viewBox="0 0 78 31" fill="none" xmlns="http://www.w3.org/2000/svg">
<g id="Group 4">
<g id="steam icon">
<path id="Union" fill-rule="evenodd" clip-rule="evenodd" d="M62.1506 30.0038C70.4696 30.0038 77.2135 23.2881 77.2135 15.0038C77.2135 6.71951 70.4696 0.00378418 62.1506 0.00378418C53.8316 0.00378418 47.0876 6.71951 47.0876 15.0038C47.0876 16.5679 47.3281 18.0761 47.7741 19.4938C47.8842 19.5157 48.051 19.5588 48.2847 19.6271L47.8844 13.3479C47.8844 13.2328 48.0791 13.1774 48.2576 13.1267C48.3555 13.0989 48.4485 13.0724 48.5017 13.0383C48.647 12.9467 51.6386 14.0357 51.7984 14.108L55.624 15.833C56.6119 15.2114 57.7935 14.9609 58.9557 15.1295L62.4326 10.9036C62.4762 7.53051 65.2365 4.8128 68.6311 4.80798C71.803 4.84171 74.4325 7.25103 74.7327 10.388C75.0523 13.7803 72.5536 16.7871 69.1444 17.11L63.3527 21.2299C62.9992 23.0369 61.7014 24.5162 59.9484 25.1041C57.2608 26.01 54.3408 24.574 53.4352 21.8949L51.4207 21.2299C51.2737 21.1833 48.615 20.081 47.8236 19.6483C49.7873 25.6592 55.4594 30.0038 62.1506 30.0038ZM71.7306 10.9757C71.7306 12.6789 70.343 14.0597 68.6313 14.0597C66.9196 14.0597 65.532 12.6789 65.532 10.9757C65.532 9.27254 66.9196 7.89182 68.6313 7.89182C70.343 7.89182 71.7306 9.27254 71.7306 10.9757ZM70.6996 10.9758C70.6996 12.1121 69.7738 13.0333 68.6318 13.0333C67.4898 13.0333 66.564 12.1121 66.564 10.9758C66.564 9.83941 67.4898 8.91821 68.6318 8.91821C69.7738 8.91821 70.6996 9.83941 70.6996 10.9758ZM56.9565 23.0032C57.3729 23.2055 57.8329 23.3116 58.2978 23.3116C58.6513 23.3116 58.9951 23.2537 59.3341 23.1429C60.1137 22.8731 60.7481 22.3093 61.1064 21.572C61.8522 20.0349 61.2033 18.1942 59.6634 17.4521C59.4019 17.3268 59.0968 17.4328 58.9709 17.6882C58.845 17.9484 58.9515 18.252 59.2082 18.3773C59.2421 18.3917 59.276 18.4062 59.3099 18.4255C60.3268 18.9459 60.719 20.1843 60.196 21.1962C59.6731 22.2081 58.4237 22.5984 57.4116 22.078C57.1502 21.9527 56.8451 22.0587 56.7192 22.3141C56.5933 22.5743 56.6998 22.8779 56.9565 23.0032Z" fill="#FFB548"/>
</g>
<g id="xbox icon">
<path id="Vector" d="M9.92733 2.72812C11.5116 3.34999 13.043 4.17134 14.4864 5.17455C14.6507 5.28601 14.8384 5.34468 15.0262 5.34468C15.2139 5.34468 15.4017 5.28601 15.566 5.17455C17.0094 4.17134 18.5408 3.34413 20.1251 2.72225C20.483 2.58145 20.7235 2.22945 20.7177 1.84225C20.7177 1.45504 20.4771 1.1089 20.1133 0.97397C16.9449 -0.228709 13.1075 -0.228709 9.94493 0.97397C9.58701 1.1089 9.34058 1.46091 9.34058 1.84225C9.34058 2.22358 9.56354 2.58732 9.92733 2.72812Z" fill="#FFB548"/>
<path id="Vector_2" d="M23.5347 2.73346C23.2354 2.52813 22.854 2.51053 22.5313 2.6924C20.7769 3.70147 19.0812 4.85722 17.4794 6.13029C17.2681 6.30043 17.1391 6.5527 17.1273 6.82257C17.1156 7.09244 17.2212 7.35644 17.4148 7.54417C20.7358 10.7063 25.336 20.404 26.3921 24.8627C24.1038 20.9907 18.9991 11.8797 15.6604 8.76445C15.3025 8.43005 14.7392 8.43005 14.3813 8.76445C11.0368 11.8797 5.94967 20.9966 3.66134 24.8745C4.71749 20.4158 9.3059 10.7063 12.6269 7.54417C12.8264 7.35644 12.932 7.09244 12.9203 6.82257C12.9086 6.5527 12.7795 6.30043 12.5682 6.13029C10.9664 4.85722 9.26483 3.70147 7.5163 2.6924C7.20533 2.51053 6.8122 2.52813 6.51296 2.73346C2.43502 5.54362 0 10.1607 0 15.0888C0 18.6909 1.29672 22.164 3.66134 24.8745C6.48949 28.195 10.6261 30.1076 15.0209 30.1076C19.4157 30.1076 23.5581 28.2009 26.3921 24.8686C28.745 22.1699 30.0417 18.6968 30.0417 15.0888C30.0417 10.1607 27.6067 5.54362 23.5347 2.73346Z" fill="#FFB548"/>
</g>
</g>
</svg>
